<svg id="Layer_1" data-name="Layer 1" xmlns="http://www.w3.org/2000/svg" xmlns:xlink="http://www.w3.org/1999/xlink" viewBox="0 0 500 500"><defs><style>.cls-1{fill:#fcfcfc;}.cls-2{fill:#902800;}.cls-3{fill:#2d0043;}.cls-4{fill:#0e6390;}.cls-5{fill:#573369;}.cls-6{fill:#c39d4d;}.cls-7{fill:#363940;}.cls-8{fill:url(#linear-gradient);}</style><linearGradient id="linear-gradient" x1="-0.32" y1="500.39" x2="0.55" y2="500.39" gradientTransform="matrix(0, -133, -500, 0, 250445, 488)" gradientUnits="userSpaceOnUse"><stop offset="0" stop-color="#363940" stop-opacity="0.09"/><stop offset="0.47" stop-color="#aeb0b2" stop-opacity="0.08"/><stop offset="1" stop-color="#fff" stop-opacity="0"/></linearGradient></defs><g id="Group_883" data-name="Group 883"><path id="Path_403" data-name="Path 403" class="cls-1" d="M0-.62H500v500H0Z"/></g><g id="Group_885" data-name="Group 885"><path id="Path_591" data-name="Path 591" class="cls-2" d="M62.56,82.53a19.23,19.23,0,0,1-.76,4.82,13.88,13.88,0,0,1-5.52,1.06c-6.89,0-9.27-3.6-9.27-11.6a25.76,25.76,0,0,1,2.13-11,15.89,15.89,0,0,1,6.53-1.62c5.17,0,6.74,1.77,6.74,7.65h4.16c.3-8-3.75-11.15-10.19-11.15-9.68,0-13.53,6-13.53,16.82,0,11.1,4.87,14.6,12.82,14.6,6.95,0,11-2.93,11-9.62Zm11.61-2.08c0,9,4.21,11.71,11.45,11.71s11-4.46,11-12.47c0-9.12-4.15-11.91-11.3-11.85C78,67.78,74.17,72.4,74.17,80.45Zm11-9.12c6.38,0,7.34,3.09,7.34,9.48A22.38,22.38,0,0,1,91.4,87.7a15.58,15.58,0,0,1-5.32.91c-6.64,0-7.7-4.1-7.7-9a29,29,0,0,1,1-7.35A19.18,19.18,0,0,1,85.12,71.33Zm34.15,20.32,9-23.36h-4.4L121,77.06c-1.22,3.6-2.54,7.65-3.55,11h-2.84c-1-3.6-2.18-7.35-3.55-11.1l-3.14-8.62h-4.46l9.12,23.36Zm21.39,0V68.29h-4V91.65Zm.41-29.14V57.7H136.2v4.81Zm14.84,29.14V81.27h5.48l7.9,10.38h5.42l-10.33-12a44.54,44.54,0,0,0,9.32-11.4h-4.91a54.8,54.8,0,0,1-7,10.29h-5.83V57.7h-4.06v34Zm51.24.51c7.35,0,11.2-2.94,11.2-8.06,0-4.15-1.32-6.94-10.08-9.27C201.83,73.11,200,71.43,200,68a13.74,13.74,0,0,1,.26-2.79,23.27,23.27,0,0,1,6.74-.91c5,0,6.49,1.27,6.49,5.78h4.1c.35-6.49-2.64-9.38-10-9.38s-11.35,3.6-11.35,8.46,2.58,7.1,10.79,9.28c5.43,1.42,7.45,2.89,7.45,6a10.61,10.61,0,0,1-.35,2.63,13.55,13.55,0,0,1-6.49,1.47c-5.88,0-8.21-1.21-8.21-5.67h-4.15c-.3,6.38,2.89,9.22,11.91,9.22Zm40.19,0a17.25,17.25,0,0,0,2-.1v-3.8c-.51,0-1,.1-1.52.1-1.63,0-1.93-1-1.93-2.48V75.08c0-5.17-3-7.3-8.57-7.3-5.92,0-9.83,2.79-9.47,7.45h4.2a18.45,18.45,0,0,1,.16-3.4,31.63,31.63,0,0,1,4.66-.4c3.65,0,5,1.57,5,4.41v3.44h-6.94c-6.43,0-8.26,2.84-8.26,6.59,0,4.66,2.64,6.28,6.13,6.28,3.7,0,6.49-1.77,9.23-4.25.56,3.25,2.53,4.26,5.32,4.26Zm-13.08-3.8c-2.83,0-3.54-1-3.54-3.5a10.66,10.66,0,0,1,.2-2.18c3-.91,8.21-.4,10.94-1.72v.15a19.48,19.48,0,0,1-.6,5.27,14.62,14.62,0,0,1-7,2Zm28.08-8A18.06,18.06,0,0,1,263,75c2.63-2.13,5.17-3.29,7.7-3.29s3.29,1.37,3.29,4v16h4.06V74.22c0-4.61-3.09-6.44-5.88-6.44-3.9,0-6.84,2.18-9.83,5.32V68.29h-4V91.65h4.06Zm36.49,11.81c6.13,0,9.78-2.33,9.78-6.48-.1-3.75-1.82-6.09-9.78-7.45-5.42-.76-6.23-2.44-6.23-4.26a6,6,0,0,1,.2-1.83,17.08,17.08,0,0,1,5.42-.7c4.26,0,5.37.81,5.37,4H308c.3-5.27-2.23-7.6-9.38-7.6-6.33,0-10.08,2.48-10.08,7.14,0,3.7,2.13,6,9.12,6.95,5.83.81,6.89,2.13,6.89,4.25a8.37,8.37,0,0,1-.15,1.73,15.29,15.29,0,0,1-5.58.71c-4.4,0-6.08-1-6.08-4.26h-4.5c-.31,5.47,2.48,7.85,10.64,7.85ZM338,74.42c0-3.29-.05-7-.15-9.88h.66c1.06,2.63,2.18,5.72,3.8,9.07l7.3,15.2h3.34l7.4-15c1.58-3.09,3.05-6.59,4.1-9.28H365c-.05,2.79-.3,6.64-.3,9.89V91.65h4.06V61.25h-6.34l-7.7,16.37c-1.16,2.48-2.13,4.71-3,6.94h-.3c-.81-1.93-2-4.81-2.94-6.94L341,61.25h-6.74v30.4H338Zm40.29,6c0,9,4.21,11.71,11.46,11.71s11-4.46,11-12.47c0-9.12-4.15-11.91-11.3-11.86-7.35,0-11.2,4.57-11.2,12.62Zm10.95-9.12c6.39,0,7.35,3.09,7.35,9.48a23,23,0,0,1-1.06,6.89,15.6,15.6,0,0,1-5.33.91c-6.64,0-7.7-4.1-7.7-9a29.48,29.48,0,0,1,1-7.35A19.16,19.16,0,0,1,389.19,71.33Zm25.19,9A17.74,17.74,0,0,1,415,75c2.63-2.13,5.17-3.29,7.7-3.29s3.29,1.37,3.29,4v16h4.06V74.22c0-4.61-3.09-6.44-5.88-6.44-3.9,0-6.84,2.18-9.83,5.32V68.29h-4.05V91.65h4.05Zm24.68.1c0,9,4.21,11.71,11.45,11.71s11.05-4.46,11.05-12.47c0-9.12-4.16-11.91-11.3-11.86-7.35,0-11.2,4.57-11.2,12.62ZM450,71.33c6.38,0,7.34,3.09,7.34,9.48a22.38,22.38,0,0,1-1.06,6.89,15.58,15.58,0,0,1-5.32.91c-6.64,0-7.7-4.1-7.7-9a29,29,0,0,1,1-7.35,19.16,19.16,0,0,1,5.72-.91Zm-396,72.81V123.36a62.76,62.76,0,0,0,12.47,1v-3.55H54.05v-1.06c0-4.16.66-6.49,4.87-6.49a22.77,22.77,0,0,1,3.19.2,7.53,7.53,0,0,1,.51,2.74h4.15c0-4.36-2.23-6.49-8-6.49S50,112.37,50,119.92v.86H43.21v3.55H50v19.81Zm20.12-11.2c0,9,4.21,11.71,11.45,11.71s11-4.46,11-12.47c0-9.12-4.15-11.91-11.3-11.86C78,120.27,74.17,124.89,74.17,132.94Zm11-9.12c6.38,0,7.34,3.09,7.34,9.48a22.38,22.38,0,0,1-1.06,6.89,15.58,15.58,0,0,1-5.32.91c-6.64,0-7.7-4.1-7.7-9a29,29,0,0,1,1-7.35A19.18,19.18,0,0,1,85.12,123.82Zm34.81-3.55c-4.15,0-6.69,1.78-9.63,4.82v-4.31h-4v23.36h4V132.33A18.06,18.06,0,0,1,111,127c2.84-2.23,4.92-3.09,8-3.09s4,1.47,4,4.31v3.45h4v-4.92c0-4.61-2.83-6.44-7.09-6.44Zm52.66,23.87v-30.4h-4.06v15H154.34v-15h-4.05v30.4h4.06V131.52a26.7,26.7,0,0,0,14.19,0v12.62Zm19.26-20.37c5,0,6.38,1.77,6.53,6.54a65,65,0,0,0-13.63,1.42,21.27,21.27,0,0,1,1.17-7.25,30.31,30.31,0,0,1,5.93-.71Zm1.26,17.33c-6.48,0-8.06-3.24-8.31-7.65h17.43a27.34,27.34,0,0,0,.26-3.5c0-6.18-3.14-9.68-9.78-9.68-8.21,0-11.91,4.61-11.91,12.47,0,8.81,4.1,11.9,11.55,11.9,6.69,0,9.88-2.12,9.88-6.63v-.46h-3.85a20.69,20.69,0,0,1-.15,2.94,15.81,15.81,0,0,1-5.12.61Zm39,3.55a19.52,19.52,0,0,0,2-.1v-3.8c-.5.05-1,.1-1.52.1-1.62,0-1.92-1-1.92-2.48v-10.8c0-5.17-3-7.3-8.57-7.3-5.93,0-9.83,2.79-9.48,7.45h4.21a19.36,19.36,0,0,1,.15-3.4,31.63,31.63,0,0,1,4.66-.4c3.65,0,5,1.57,5,4.4v3.45h-6.94c-6.44,0-8.26,2.84-8.26,6.59,0,4.66,2.63,6.28,6.13,6.28,3.7,0,6.49-1.77,9.22-4.25.56,3.25,2.54,4.26,5.33,4.26Zm-13.08-3.8c-2.84,0-3.55-1-3.55-3.5a12.28,12.28,0,0,1,.2-2.18c3-.91,8.21-.41,10.95-1.72v.15a19.1,19.1,0,0,1-.61,5.27,14.56,14.56,0,0,1-7,2Zm31.27-.1c-3.24,0-4.81-1.62-4.81-8.36a37.72,37.72,0,0,1,.6-7.8,25.49,25.49,0,0,1,6.85-.76,35.26,35.26,0,0,1,5.22.45V132a18.79,18.79,0,0,1-.66,5.48c-2.69,2-5.17,3.29-7.2,3.29Zm7.85,3.4h4.06v-34h-4.06v11.86a16.17,16.17,0,0,0-6.74-1.78c-5.67,0-10,3.5-10,12.93,0,8.15,2.43,11.35,6.89,11.35,3.75,0,6.84-2.23,9.88-5.27Zm19.31,0V120.78h-4.05v23.36ZM277.9,115v-4.82H273V115Zm14.85,17.84a17.66,17.66,0,0,1,.66-5.37c2.63-2.13,5.17-3.3,7.7-3.3s3.29,1.37,3.29,4v16h4.05V126.71c0-4.61-3.09-6.44-5.87-6.44-3.9,0-6.85,2.18-9.84,5.32v-4.81h-4.05v23.36h4.05Zm34.36,21.94c10.08,0,13.28-2.58,13.28-8,0-3.5-2.49-5.22-6.44-5.22h-8.31c-1.72,0-2.79-.65-2.79-2a3.4,3.4,0,0,1,.36-1.72,25.46,25.46,0,0,1,4.1-.3c6.94,0,11-2.89,11-8a9.63,9.63,0,0,0-1.67-6,9,9,0,0,0,4.71-2.94l-3.19-2.84-3.3,4.16a12.23,12.23,0,0,0-6.49-1.47c-6.63,0-10.49,3.24-10.49,9.47,0,3.86,1.47,5.93,4.06,6.9a6.25,6.25,0,0,0-2.38,4.46,3.41,3.41,0,0,0,.91,2.63,6.48,6.48,0,0,0-3.85,5.68c0,3.43,2.38,5.16,10.49,5.16Zm.76-31.12c5.52,0,6.54,2.39,6.54,5.63a21.41,21.41,0,0,1-.3,4.66,24.07,24.07,0,0,1-6.49.71c-4.92,0-5.88-2.43-5.88-5.73a21.32,21.32,0,0,1,.46-4.71,23,23,0,0,1,5.67-.56Zm-.1,27.52c-5.83,0-7.3-1.21-7.3-3.19a3.67,3.67,0,0,1,.86-2.58c1.06-.36,3.45-.56,7.4-.56,7.3,0,7.8,1.11,7.8,3.7a7.34,7.34,0,0,1-.4,2,45,45,0,0,1-8.36.66Zm31.88-6.53c6.13,0,9.78-2.34,9.78-6.49-.1-3.75-1.83-6.08-9.78-7.45-5.43-.76-6.24-2.43-6.24-4.26a5.88,5.88,0,0,1,.2-1.82,16.9,16.9,0,0,1,5.43-.71c4.25,0,5.37.81,5.37,3.95h4.36c.3-5.27-2.23-7.6-9.38-7.6-6.34,0-10.09,2.48-10.09,7.15,0,3.7,2.13,6,9.13,6.94,5.82.81,6.89,2.13,6.89,4.26a8.27,8.27,0,0,1-.15,1.72,15.08,15.08,0,0,1-5.58.71c-4.41,0-6.08-1-6.08-4.26H349c-.3,5.47,2.48,7.85,10.64,7.85Zm19.1-6.85v6.34H385v-6.34Z"/><path id="Path_590" data-name="Path 590" class="cls-3" d="M54.62,178.86a7.61,7.61,0,0,0-7.41-7.78h-.46a7.59,7.59,0,0,0-7.84,7.31v.47a7.73,7.73,0,0,0,7.84,7.6h0a7.69,7.69,0,0,0,7.84-7.56Zm-2.35-.11c0,4.41-2.78,6.6-5.52,6.6s-5.5-2.19-5.5-6.6,2.77-6.64,5.5-6.64S52.27,174.34,52.27,178.75ZM67,186.11v-.84a5.06,5.06,0,0,1-1,.17c-.57,0-.63-.39-.63-2V170l-3.39.15v1h.87c.42,0,.68,0,.68,1.92v3.64a3.51,3.51,0,0,0-2.22-.8c-3,0-4.82,3.26-4.82,6,0,2.43,1.13,4.65,3.84,4.65a3.62,3.62,0,0,0,3.28-2.13h0l.13.82a1.56,1.56,0,0,0,1.7,1.3,4.79,4.79,0,0,0,1.54-.35Zm-3.5-4.51c0,2.3-1.43,3.67-2.8,3.67s-2.26-1.63-2.26-3.46c0-2.28,1-4.84,3-4.84a2.92,2.92,0,0,1,2,.91Zm10.3,4.6v-.87H72v-9.49L68.3,176v1h1.19c.42,0,.68,0,.68,1.91v6.45H68.4v.87Zm-1.45-13.86A1.3,1.3,0,0,0,71,171.08h0a1.32,1.32,0,0,0-1.35,1.26,1.34,1.34,0,0,0,2.68,0ZM80.2,186.2v-.87H78.44V170l-3.71.15v1h1.19c.41,0,.67,0,.67,1.92v12.33H74.84v.87ZM89.76,181a4.43,4.43,0,0,0,.43-1.83c0-2.17-1.86-3.32-3.75-3.32a5.17,5.17,0,0,0-5,5.36h0a5,5,0,0,0,4.63,5.25h.56a4.56,4.56,0,0,0,3.65-1.74l-.45-.5a4.42,4.42,0,0,1-2.8,1.11c-2.43,0-3.69-2-3.61-4.34Zm-1.52-1h-4.7c.27-1.54,1.18-3.33,2.94-3.33a2.15,2.15,0,0,1,2,2.25A3.63,3.63,0,0,1,88.24,180Zm14.83,6.19v-.87h-2V177h2.73v-1H101.1v-3.4c0-1.15.3-2,1.41-2,.17.76.93,1.8,1.82,1.8.57,0,1-.4,1.26-1.33a4.16,4.16,0,0,0-2.71-1,3.35,3.35,0,0,0-3.63,3.06,3.11,3.11,0,0,0,0,.61V176h-2v1h2v8.36h-2v.87Zm11.67-5.06a4.92,4.92,0,0,0-4.52-5.28l-.35,0a4.92,4.92,0,0,0-4.88,4.95c0,.12,0,.23,0,.35,0,3.17,2.06,5.32,4.86,5.32S114.74,184.31,114.74,181.14Zm-2,0c0,2.13-.93,4.24-2.89,4.24s-2.89-2.11-2.89-4.24,1-4.43,2.89-4.43,2.89,2.24,2.89,4.43Zm8.34,5v-.87h-1.43v-5.77l2.1-2.29a1.75,1.75,0,0,0,1.39.72,1.11,1.11,0,0,0,1.21-1,.76.76,0,0,0,0-.15,2.32,2.32,0,0,0-.26-1,3.56,3.56,0,0,0-3.35,1.37l-1.08,1.17-.2-2.54-3.22.18V177h.89c.42,0,.66,0,.66,1.91v6.45h-1.43v.87Zm29.32,0v-1h-1.26c-.41,0-.67,0-.67-1.93v-11h1.93v-1h-4.17v.5l-5.63,11.58L135,171.8v-.5h-4.37v1h1.26c.42,0,.67,0,.67,1.93v11h-1.93v1h5.3v-1H134V174.09l6,12.27.42-.15,6-12.12v11.12H144.4v1Zm9.84-5.21a4.42,4.42,0,0,0,.43-1.82c0-2.18-1.86-3.33-3.75-3.33a5.18,5.18,0,0,0-5,5.37h0a5,5,0,0,0,4.63,5.25h.56a4.59,4.59,0,0,0,3.65-1.74l-.45-.5a4.42,4.42,0,0,1-2.8,1.11c-2.44,0-3.69-2-3.61-4.34Zm-1.52-1h-4.69c.26-1.54,1.17-3.32,2.93-3.32a2.15,2.15,0,0,1,2,2.24,4,4,0,0,1-.22,1.08Zm11,5.6-.33-.78a5.46,5.46,0,0,1-1.74.41c-1,0-1.74-.19-1.74-1.53V177h3V176h-3v-3.17h-1.52l-.32,3-2,.17v1h2v6.71c0,2.06,1.19,2.78,2.89,2.78a6.36,6.36,0,0,0,2.75-.85Zm10.88.5v-.84a5.55,5.55,0,0,1-1.07.17c-.52,0-.58-.39-.58-2v-4.2c0-2.23-1.33-3.43-3.59-3.43a5.2,5.2,0,0,0-3.41,1.09c.22,1,.72,1.34,1.24,1.34.89,0,1.52-1,1.74-1.78,1.5,0,2.17.92,2.17,2.46v1.19c-4.19.09-5.8,2-5.8,3.74a2.54,2.54,0,0,0,2.46,2.59H174a3.84,3.84,0,0,0,3.15-1.78h0l.1.48a1.6,1.6,0,0,0,1.7,1.3,5.59,5.59,0,0,0,1.61-.35Zm-3.5-2.3a3.87,3.87,0,0,1-2.43,1.46,1.38,1.38,0,0,1-1.42-1.34v-.16c0-1.54,1.65-2.67,3.85-2.74Zm15.48,2.3v-.84a4.94,4.94,0,0,1-1,.17c-.56,0-.63-.39-.63-2V170l-3.38.15v1h.86c.42,0,.68,0,.68,1.92v3.64a3.51,3.51,0,0,0-2.22-.8c-3,0-4.82,3.26-4.82,6,0,2.43,1.13,4.65,3.84,4.65a3.62,3.62,0,0,0,3.28-2.13h.05l.13.82a1.54,1.54,0,0,0,1.69,1.3,4.91,4.91,0,0,0,1.55-.35Zm-3.5-4.52c0,2.3-1.43,3.68-2.8,3.68s-2.25-1.63-2.25-3.46c0-2.28,1-4.84,3-4.84a2.9,2.9,0,0,1,2,.91Zm14.3,4.52v-.84a5.55,5.55,0,0,1-1.07.17c-.52,0-.58-.39-.58-2v-4.2c0-2.23-1.33-3.43-3.59-3.43a5.18,5.18,0,0,0-3.41,1.09c.22,1,.72,1.34,1.24,1.34.89,0,1.52-1,1.74-1.78,1.5,0,2.17.92,2.17,2.46v1.19c-4.19.09-5.8,2-5.8,3.74a2.52,2.52,0,0,0,2.46,2.59h.25a3.84,3.84,0,0,0,3.15-1.78h0l.1.48a1.6,1.6,0,0,0,1.7,1.3,5.59,5.59,0,0,0,1.61-.35Zm-3.5-2.3a3.87,3.87,0,0,1-2.44,1.46,1.37,1.37,0,0,1-1.41-1.34.86.86,0,0,1,0-.16c0-1.54,1.65-2.67,3.84-2.74Zm12.1,1.8-.33-.78a5.46,5.46,0,0,1-1.74.41c-1,0-1.74-.2-1.74-1.54V177h3v-1h-3v-3.17h-1.52l-.32,3-2,.18V177h2v6.71c0,2.07,1.19,2.78,2.89,2.78a6.26,6.26,0,0,0,2.76-.84Zm10.88.5v-.84a5.55,5.55,0,0,1-1.07.17c-.52,0-.58-.39-.58-2v-4.2c0-2.23-1.33-3.43-3.59-3.43a5.18,5.18,0,0,0-3.41,1.09c.22,1,.72,1.34,1.24,1.34.89,0,1.52-1,1.74-1.78,1.5,0,2.17.92,2.17,2.46v1.19c-4.19.09-5.8,2-5.8,3.74a2.52,2.52,0,0,0,2.46,2.59h.26a3.82,3.82,0,0,0,3.14-1.78h0l.11.48a1.6,1.6,0,0,0,1.69,1.3,5.59,5.59,0,0,0,1.61-.35Zm-3.5-2.3a3.87,3.87,0,0,1-2.44,1.46,1.37,1.37,0,0,1-1.41-1.34.86.86,0,0,1,0-.16c0-1.54,1.65-2.67,3.85-2.74Zm19.63,2.3v-.84a5.45,5.45,0,0,1-1.06.17c-.52,0-.59-.39-.59-2v-4.2c0-2.23-1.32-3.43-3.58-3.43a5.18,5.18,0,0,0-3.41,1.09c.21,1,.71,1.34,1.23,1.34.89,0,1.52-1,1.74-1.78,1.5,0,2.17.92,2.17,2.46v1.19c-4.19.09-5.8,2-5.8,3.74a2.54,2.54,0,0,0,2.46,2.59h.26a3.85,3.85,0,0,0,3.15-1.78h0l.11.48a1.6,1.6,0,0,0,1.69,1.3,5.59,5.59,0,0,0,1.62-.35Zm-3.5-2.3a3.85,3.85,0,0,1-2.43,1.46,1.38,1.38,0,0,1-1.42-1.34.86.86,0,0,1,0-.16c0-1.54,1.65-2.67,3.84-2.74Zm16.44,2.39v-.87H250.5v-6.82a2.57,2.57,0,0,0-2.48-2.68,2.81,2.81,0,0,0-.41,0,3.35,3.35,0,0,0-2.56,1l-1.43,1.26-.22-2.3-3.17.18V177h.89c.41,0,.65,0,.65,1.92v6.45h-1.43v.87h4.71v-.87h-1.43v-5.8l1.87-1.68a2.63,2.63,0,0,1,1.69-.89c1,0,1.48.7,1.48,2.05v6.32h-1.43v.87Zm11.86-.09v-.84a4.94,4.94,0,0,1-1,.17c-.56,0-.63-.39-.63-2V170l-3.39.15v1h.87c.41,0,.67,0,.67,1.92v3.64a3.49,3.49,0,0,0-2.21-.8c-3,0-4.82,3.26-4.82,6,0,2.43,1.13,4.65,3.84,4.65a3.62,3.62,0,0,0,3.28-2.13h0l.13.82a1.56,1.56,0,0,0,1.7,1.3,5,5,0,0,0,1.56-.35Zm-3.5-4.51c0,2.3-1.43,3.67-2.8,3.67s-2.26-1.63-2.26-3.46c0-2.28,1-4.84,3-4.84a2.9,2.9,0,0,1,2,.91Zm20.14,4.6v-1h-1.26c-.42,0-.68,0-.68-1.94v-11h3.72l.39,3.22h1.28V171.3H271v4.22h1.28l.4-3.22h3.71v12.91h-1.93v1Zm12.55-.09v-.84a5.57,5.57,0,0,1-1.06.17c-.53,0-.59-.39-.59-2v-4.2c0-2.23-1.33-3.43-3.58-3.43a5.18,5.18,0,0,0-3.41,1.09c.21,1,.71,1.34,1.23,1.34.89,0,1.52-1,1.74-1.78,1.5,0,2.17.92,2.17,2.46v1.19c-4.19.09-5.8,2-5.8,3.74a2.54,2.54,0,0,0,2.46,2.59h.27a3.84,3.84,0,0,0,3.15-1.78h0l.1.48a1.6,1.6,0,0,0,1.7,1.3,5.59,5.59,0,0,0,1.61-.35Zm-3.5-2.3a3.82,3.82,0,0,1-2.43,1.45,1.37,1.37,0,0,1-1.42-1.33v-.17c0-1.54,1.66-2.67,3.85-2.73Zm15.29,4.26c0-1.06-1-2.37-3.24-2.72l-3.58-.56a.94.94,0,0,1-.87-.87c0-.41.39-.82,1.24-.74a1.89,1.89,0,0,0,.71.07c2.46,0,4.1-1.61,4.1-3.69a4.3,4.3,0,0,0-.65-2.26l1.59-.33v-1l-3.19.24a5.18,5.18,0,0,0-1.85-.41c-2.78,0-4.19,1.8-4.19,3.61a3.54,3.54,0,0,0,2.06,3.32,1.82,1.82,0,0,0-1.54,1.69,1.89,1.89,0,0,0,1.13,1.67c-1.54.37-2.33,1.29-2.33,2.24,0,1.91,2.35,2.89,4.85,2.89C301.8,191.26,304.76,190.2,304.76,188.07Zm-1.8.17c0,1.46-1.93,2.2-3.85,2.2s-3.43-1.13-3.43-2.22c0-.74.7-1.45,2.39-1.78l3.17.5c1.13.17,1.72.72,1.72,1.3Zm-1.52-8.66c0,1.87-1.17,2.82-2.37,2.82a2.53,2.53,0,0,1-2.43-2.62c0-.07,0-.13,0-.2a2.65,2.65,0,0,1,2.37-2.89h0c1.54,0,2.37,1.45,2.37,2.89Zm13,3.86c0-2.3-2.34-2.73-4-3.38-1.22-.48-1.92-1.05-1.92-1.87s.72-1.72,2.42-1.72c.21.74.89,1.78,1.73,1.78.52,0,1-.39,1.2-1.34a4.82,4.82,0,0,0-3.28-1.07c-1.85,0-4,.78-4,2.74,0,1.65,1.8,2.5,3.24,3.08s2.87,1,2.87,2.15-1.15,1.7-2.41,1.7a4,4,0,0,1-2.29-.83l-.39-2H306.4v2.56a6.74,6.74,0,0,0,3.85,1.24C312.29,186.46,314.4,185.68,314.4,183.44ZM320,185a1.5,1.5,0,0,0-3,0,1.5,1.5,0,0,0,3,0Z"/><path id="Path_592" data-name="Path 592" class="cls-4" d="M38.55,18.71v2h4V30.1h2.28V20.4a22.67,22.67,0,0,0,4,.33v-2ZM52.6,33.48c2.89,0,3.63-1.16,4.62-4l2.83-8.27H57.5l-.85,3.19c-.29,1-.59,2.11-.84,3.25H54.57c-.26-1.15-.55-2.16-.87-3.19l-1-3.25H50.18l2.89,8.08h2.11a13.66,13.66,0,0,1-.93,2.11,8.15,8.15,0,0,1-1.63.13,10.84,10.84,0,0,1-2.2-.26v2A10.59,10.59,0,0,0,52.6,33.48Zm13.91-5a16.74,16.74,0,0,1-1.73-.11V25.73A5.94,5.94,0,0,1,65,23.86,3.74,3.74,0,0,1,67.2,23c1.08,0,1.6.53,1.6,2.7a10.44,10.44,0,0,1-.27,2.49,5.36,5.36,0,0,1-2,.3Zm-1.73,4.77V29.81a5.88,5.88,0,0,0,2.34.46C69.29,30.27,71,29,71,25.42c0-3.15-.9-4.39-2.55-4.39a5.33,5.33,0,0,0-3.67,2V21.22h-2.2V33.29Zm8.65-7.47c0,3.46,1.71,4.52,4.6,4.52s4.37-1.82,4.37-4.75c0-3.5-1.69-4.6-4.54-4.58s-4.44,1.77-4.44,4.81Zm4.39-3c2,0,2.36.91,2.36,3.08a8.75,8.75,0,0,1-.3,2.39,5.81,5.81,0,0,1-1.75.27c-2,0-2.47-1.2-2.47-2.91a12.41,12.41,0,0,1,.28-2.57,7.4,7.4,0,0,1,1.87-.26Zm10.9,11.31c4,0,5.21-1,5.21-3,0-1.48-.93-2.22-2.6-2.22H88.21c-.63,0-.93-.23-.93-.7a1.2,1.2,0,0,1,.07-.46A10,10,0,0,1,89,27.63c2.64,0,4.3-1.08,4.3-3.08a3.47,3.47,0,0,0-.8-2.43A3.83,3.83,0,0,0,94.25,21l-1.5-1.31-1.23,1.81a5.94,5.94,0,0,0-2.32-.4c-2.66,0-4.2,1.24-4.2,3.59a2.51,2.51,0,0,0,1.67,2.63,2,2,0,0,0-1.14,1.67A1.29,1.29,0,0,0,86,30a2.37,2.37,0,0,0-1.39,2.07C84.62,33.44,85.55,34.11,88.72,34.11ZM89,22.67c1.9,0,2.26.83,2.26,2A9.07,9.07,0,0,1,91.21,26a9.92,9.92,0,0,1-2.11.19c-1.76,0-2.11-.83-2.11-1.95a7.2,7.2,0,0,1,.14-1.39A10.74,10.74,0,0,1,89,22.67Zm0,9.78c-2,0-2.49-.43-2.49-1.12a1.47,1.47,0,0,1,.15-.68,10.68,10.68,0,0,1,2.7-.23c2.51,0,2.8.4,2.8,1.35a2.33,2.33,0,0,1-.08.46A18.7,18.7,0,0,1,89,32.45ZM102.54,21c-1.54,0-2.51.74-3.67,2.15v-2H96.74v8.9h2.2V26.54a9.56,9.56,0,0,1,.21-2.13,3.87,3.87,0,0,1,2.63-1.33c.89,0,1.23.46,1.23,1.39v1.31h2.2V23.94C105.22,21.85,104.17,21,102.54,21Zm13.17,9.28a7.46,7.46,0,0,0,1.06-.1V28.48a4.38,4.38,0,0,1-.51,0c-.51,0-.61-.27-.61-.74v-4c0-2-1.25-2.78-3.59-2.78-2.64,0-4,1.05-3.82,3.06h2.24a10.51,10.51,0,0,1,0-1.25,6.4,6.4,0,0,1,1.31-.13c1.22,0,1.64.55,1.64,1.54v1.1H110.9c-2.39,0-3.14,1.08-3.14,2.52a2.22,2.22,0,0,0,1.94,2.47,1.63,1.63,0,0,0,.54,0,4.22,4.22,0,0,0,3.3-1.63,1.9,1.9,0,0,0,2.13,1.64Zm-4.52-1.77c-1,0-1.24-.3-1.24-1.08a5.14,5.14,0,0,1,.08-.88,20.08,20.08,0,0,0,3.44-.57v0a7.2,7.2,0,0,1-.23,2A4.47,4.47,0,0,1,111.19,28.54Zm12.33,0a16.56,16.56,0,0,1-1.73-.11V25.73a5.94,5.94,0,0,1,.25-1.87A3.71,3.71,0,0,1,124.2,23c1.08,0,1.6.53,1.6,2.7a9.55,9.55,0,0,1-.27,2.49A5.49,5.49,0,0,1,123.52,28.52Zm-1.73,4.77V29.81a5.88,5.88,0,0,0,2.34.46c2.17,0,3.88-1.31,3.88-4.85,0-3.15-.9-4.39-2.55-4.39a5.31,5.31,0,0,0-3.67,2V21.22h-2.2V33.29ZM133.19,26a7.24,7.24,0,0,1,.19-2,3.7,3.7,0,0,1,2.34-.95c.78,0,1.1.45,1.1,1.33v5.74H139V23.67c0-1.88-1.14-2.64-2.28-2.64-1.43,0-2.47.82-3.56,2V17.38H131V30.12h2.2Zm10.63,7.51c2.88,0,3.62-1.16,4.61-4l2.83-8.27h-2.54l-.86,3.19c-.28,1-.58,2.11-.83,3.25h-1.24c-.26-1.15-.55-2.16-.87-3.19L144,21.22H141.4l2.89,8.08h2.11a13.66,13.66,0,0,1-.93,2.11,8.19,8.19,0,0,1-1.64.13,10.92,10.92,0,0,1-2.2-.26v2a10.69,10.69,0,0,0,2.19.2ZM38,31.93H49.5v.9H38Zm19.13,0h4.54v.9H57.13Zm8.55,0h18v.9h-18Zm29.15,0h23.85v.9H94.83Zm27.87,0h18v.9h-18Zm25.66,0H152v.9h-3.67Z"/><path id="Path_589" data-name="Path 589" d="M40.09,207.06v-1.5H51v1.5H46.37v13.53H44.72V207.06ZM52.8,220.59V209.73h1.63v10.86Zm0-13.31v-1.89h1.63v1.89Zm10.38,3.86H59.73v5.19a6.83,6.83,0,0,0,.27,2.46c.18.39.61.58,1.29.58l1.93-.13.11,1.35a13.71,13.71,0,0,1-2.21.24,2.82,2.82,0,0,1-2.35-.83,5.4,5.4,0,0,1-.65-3.15v-5.71H56.58v-1.41h1.54v-3.32h1.61v3.32h3.45Zm2,9.45V209.73h1.63v10.86Zm0-13.31v-1.89h1.63v1.89Zm4.88,13.31V205h1.63v15.59Zm5,0V205h1.63v15.59Zm4.89,0V209.73H81.6v10.86Zm0-13.31v-1.89H81.6v1.89Zm11.53,2.45h1.63v10.86H91.5v-.76a6.2,6.2,0,0,1-3.21,1c-1.48,0-2.46-.39-3-1.15a8.78,8.78,0,0,1-.72-4.26v-5.67h1.63v5.65a8,8,0,0,0,.41,3.17c.27.53.9.8,1.87.8a5.46,5.46,0,0,0,1.45-.2,6.32,6.32,0,0,0,1.13-.4l.39-.2Zm6.39,10.86H96.26V209.73h1.61v.76a6.13,6.13,0,0,1,3.17-1,3.28,3.28,0,0,1,2.82,1.11,8.2,8.2,0,0,1,1.86-.77,7.18,7.18,0,0,1,2-.34,3.24,3.24,0,0,1,2.92,1.17,8.23,8.23,0,0,1,.75,4.18v5.73h-1.63V214.9a7.44,7.44,0,0,0-.44-3.1,1.9,1.9,0,0,0-1.84-.84,6.15,6.15,0,0,0-1.48.21,8.07,8.07,0,0,0-1.17.4l-.41.2a11.29,11.29,0,0,1,.28,3.17v5.65h-1.63V215a8,8,0,0,0-.42-3.18,1.89,1.89,0,0,0-1.86-.84,5.25,5.25,0,0,0-1.42.21,6.22,6.22,0,0,0-1.12.4l-.37.2Zm20.39-15H120l2.56,13.55h.63l3.07-13.42h1.95l3.06,13.42h.63l2.56-13.55h1.72l-3,15H130.1l-2.85-12.84-2.84,12.84h-3.06Zm27.11,13.68.63-.06,0,1.28a31.61,31.61,0,0,1-4.23.35,3.83,3.83,0,0,1-3.33-1.36,7.34,7.34,0,0,1-1-4.22q0-5.72,4.54-5.72a4.18,4.18,0,0,1,3.28,1.23,5.71,5.71,0,0,1,1.08,3.86l-.09,1.23h-7.16a4.5,4.5,0,0,0,.65,2.68,2.66,2.66,0,0,0,2.27.86C143.18,219.37,144.27,219.33,145.39,219.24Zm-.59-4.71a4.66,4.66,0,0,0-.64-2.82,2.49,2.49,0,0,0-2.08-.83,2.69,2.69,0,0,0-2.18.87,4.37,4.37,0,0,0-.74,2.78Zm9-5a3.55,3.55,0,0,1,3.08,1.25,8,8,0,0,1,.87,4.38c0,2.08-.36,3.55-1.09,4.4s-2.08,1.27-4,1.27c-.61,0-1.62-.06-3-.17l-.61-.07V205h1.61v5.27A7.7,7.7,0,0,1,153.77,209.51Zm-1.19,9.84c1.42,0,2.36-.32,2.81-1a5.89,5.89,0,0,0,.69-3.27,6.86,6.86,0,0,0-.55-3.22,2,2,0,0,0-1.93-.92,7.55,7.55,0,0,0-2.58.47l-.44.16v7.64C151.52,219.31,152.19,219.35,152.58,219.35Zm14.68-8.21v9.45h-1.63v-9.45h-1.36v-1.41h1.36v-1a5.45,5.45,0,0,1,.65-3.14,2.73,2.73,0,0,1,2.29-.83l2.19.15,0,1.35c-.81,0-1.48-.05-2-.05a1.26,1.26,0,0,0-1.13.52,4.14,4.14,0,0,0-.34,2v1h3.15v1.41Zm4.43,4a6.88,6.88,0,0,1,1.07-4.3,5.54,5.54,0,0,1,7.18,0,6.93,6.93,0,0,1,1.05,4.3,7.34,7.34,0,0,1-1,4.32c-.67.9-1.88,1.35-3.65,1.35s-3-.45-3.65-1.35a7.34,7.34,0,0,1-1-4.32Zm1.68,0a6.91,6.91,0,0,0,.57,3.33,3.51,3.51,0,0,0,4.81,0,7.05,7.05,0,0,0,.57-3.33,6.15,6.15,0,0,0-.63-3.29,3.49,3.49,0,0,0-4.68,0,6,6,0,0,0-.65,3.28Zm10.27,5.48V209.73h1.6v1.48a10.62,10.62,0,0,1,4-1.72v1.65a11.19,11.19,0,0,0-1.9.55,11.84,11.84,0,0,0-1.51.65l-.54.28v8Zm12.57-15h5.45a5.2,5.2,0,0,1,3.36.92,3.57,3.57,0,0,1,1.12,2.9,4.19,4.19,0,0,1-.49,2.2,3.29,3.29,0,0,1-1.44,1.25,3.4,3.4,0,0,1,2.39,3.54,4,4,0,0,1-1.2,3.24,5.37,5.37,0,0,1-3.45,1h-5.74Zm5.56,8.12h-3.89v5.43h4a3.47,3.47,0,0,0,2.25-.62,2.67,2.67,0,0,0,.77-2.18,2.81,2.81,0,0,0-.32-1.39,1.79,1.79,0,0,0-.83-.8A5,5,0,0,0,201.77,213.68ZM201.6,207h-3.72v5.19h3.87a2.69,2.69,0,0,0,2-.66,2.76,2.76,0,0,0,.64-2,2.45,2.45,0,0,0-.68-1.94,3.2,3.2,0,0,0-2.14-.59Zm7.23,8.1a6.88,6.88,0,0,1,1.07-4.3,4.34,4.34,0,0,1,3.59-1.33,4.29,4.29,0,0,1,3.58,1.33,7,7,0,0,1,1.06,4.3,7.34,7.34,0,0,1-1,4.32c-.67.9-1.89,1.35-3.65,1.35s-3-.45-3.65-1.35a7.34,7.34,0,0,1-1-4.32Zm1.67,0a7,7,0,0,0,.58,3.34,3.51,3.51,0,0,0,4.81,0,7.05,7.05,0,0,0,.57-3.33,6.12,6.12,0,0,0-.63-3.29,2.66,2.66,0,0,0-2.34-.9,2.69,2.69,0,0,0-2.35.9,6,6,0,0,0-.64,3.28ZM229.12,205v15.6h-1.61v-.74a6.76,6.76,0,0,1-3.3,1,4.86,4.86,0,0,1-1.52-.22,3.15,3.15,0,0,1-1.22-.78c-.78-.78-1.17-2.23-1.17-4.34a7.76,7.76,0,0,1,1-4.56,4.13,4.13,0,0,1,3.49-1.4,13.31,13.31,0,0,1,2.67.29V205Zm-6.39,13.64a1.87,1.87,0,0,0,.74.57,2.88,2.88,0,0,0,1,.15,5.9,5.9,0,0,0,1.39-.2,9.93,9.93,0,0,0,1.2-.4l.44-.2v-7.37a15,15,0,0,0-2.59-.26,2.51,2.51,0,0,0-2.3,1.05,6.42,6.42,0,0,0-.65,3.28,5.39,5.39,0,0,0,.76,3.39Zm8.51-8.9h1.63l2.72,9.45h.72l2.73-9.45h1.63l-4.52,15.68h-1.63l1.42-4.82h-1.61Zm15-2.67v-1.5h10.86v1.5h-4.58v13.53h-1.65V207.06Zm18.12,12.18.63-.06,0,1.28a31.61,31.61,0,0,1-4.23.35,3.81,3.81,0,0,1-3.33-1.36,7.27,7.27,0,0,1-1-4.22c0-3.81,1.52-5.72,4.54-5.72a4.18,4.18,0,0,1,3.28,1.23,5.72,5.72,0,0,1,1.09,3.86l-.09,1.23h-7.17a4.44,4.44,0,0,0,.66,2.68,2.65,2.65,0,0,0,2.27.86C262.16,219.37,263.25,219.33,264.37,219.24Zm-.59-4.71a4.73,4.73,0,0,0-.64-2.82,2.5,2.5,0,0,0-2.09-.83,2.66,2.66,0,0,0-2.17.87,4.44,4.44,0,0,0-.75,2.78Zm3-4.8h1.78l2.65,4.26,2.65-4.26h1.78l-3.45,5.39,3.43,5.47h-1.78l-2.63-4.24-2.65,4.24h-1.78l3.41-5.43Zm16.53,1.41h-3.45v5.19a6.83,6.83,0,0,0,.27,2.46c.18.39.61.58,1.29.58l1.93-.13.11,1.35a13.71,13.71,0,0,1-2.21.24,2.82,2.82,0,0,1-2.35-.83,5.35,5.35,0,0,1-.65-3.14v-5.72h-1.54v-1.41h1.54v-3.32h1.61v3.32h3.45Zm1.89,9.45v-2.48H287v2.48Z"/></g><g id="Group_884" data-name="Group 884"><path id="Path_593" data-name="Path 593" class="cls-4" d="M46.48,270.52a5.15,5.15,0,0,1-.27,1.74,4.5,4.5,0,0,1-1.78.33c-2.15,0-2.81-1.31-2.81-3.78a11.35,11.35,0,0,1,.6-3.84,6.59,6.59,0,0,1,2-.35c1.69,0,2.2.67,2.2,2.67h2.24c.06-3.25-1.48-4.6-4.22-4.6-3.64,0-5.14,2.24-5.14,6.34s1.91,5.52,5,5.52c2.74,0,4.37-1.24,4.37-4ZM51,270c0,3.46,1.71,4.53,4.6,4.53S60,272.72,60,269.79c0-3.5-1.69-4.6-4.54-4.58S51,267,51,270Zm4.39-3c2,0,2.36.91,2.36,3.08a8.75,8.75,0,0,1-.3,2.39,5.24,5.24,0,0,1-1.75.27c-2,0-2.47-1.2-2.47-2.91a12.24,12.24,0,0,1,.28-2.56,7.57,7.57,0,0,1,1.89-.27Zm7.3,4.81c0,1.75.86,2.66,2.57,2.66a5.65,5.65,0,0,0,1.23-.13v-1.9a6.33,6.33,0,0,1-.76.05c-.61,0-.83-.34-.83-.93v-10h-2.2ZM68.09,270c0,3.46,1.71,4.53,4.6,4.53s4.37-1.83,4.37-4.76c0-3.5-1.69-4.6-4.54-4.58S68.09,267,68.09,270Zm4.39-3c2,0,2.35.91,2.35,3.08a8,8,0,0,1-.3,2.39,5.15,5.15,0,0,1-1.74.27c-2,0-2.48-1.2-2.48-2.91a13,13,0,0,1,.29-2.56,7.42,7.42,0,0,1,1.88-.27Zm13.32-1.77c-1.54,0-2.51.74-3.67,2.15v-2H80v8.9h2.21v-3.58a10.09,10.09,0,0,1,.2-2.12A3.79,3.79,0,0,1,85,267.29c.89,0,1.23.45,1.23,1.38V270h2.2v-1.84c0-2.09-1-2.91-2.67-2.91Zm9.73,9.32c2.62,0,4-.92,4-2.6,0-1.43-.6-2.35-3.81-2.95-1.79-.3-2-.8-2-1.39a2.21,2.21,0,0,1,.06-.57,5.75,5.75,0,0,1,1.65-.21c1.33,0,1.69.29,1.69,1.29h2.2c.12-2-.91-2.92-3.76-2.92-2.6,0-4,.95-4,2.75,0,1.52.82,2.34,3.48,2.8,2,.32,2.32.76,2.32,1.46a4,4,0,0,1,0,.49,4.74,4.74,0,0,1-1.67.21c-1.45,0-2-.3-2-1.39H91.35c-.13,2.11,1,3,4.18,3Zm-57.16,1.58h62.71v.9H38.37Z"/><rect id="Rectangle_587" data-name="Rectangle 587" class="cls-3" x="38" y="301.92" width="132.88" height="66.31"/><rect id="Rectangle_595" data-name="Rectangle 595" class="cls-2" x="38" y="377.74" width="132.88" height="66.31"/><rect id="Rectangle_598" data-name="Rectangle 598" class="cls-4" x="328.32" y="301.92" width="132.88" height="66.31"/><rect id="Rectangle_592" data-name="Rectangle 592" class="cls-5" x="183.16" y="301.92" width="132.88" height="66.31"/><rect id="Rectangle_596" data-name="Rectangle 596" class="cls-6" x="183.16" y="377.74" width="132.88" height="66.31"/><rect id="Rectangle_597" data-name="Rectangle 597" class="cls-7" x="328.32" y="377.74" width="132.88" height="66.31"/></g><rect id="Rectangle_641" data-name="Rectangle 641" class="cls-8" y="366.38" width="500" height="133"/></svg>