<svg id="Layer_1" data-name="Layer 1" xmlns="http://www.w3.org/2000/svg" xmlns:xlink="http://www.w3.org/1999/xlink" viewBox="0 0 500 500"><defs><style>.cls-1{fill:#fcfcfc;}.cls-2{fill:#0e6390;}.cls-10,.cls-11,.cls-12,.cls-13,.cls-14,.cls-15,.cls-16,.cls-17,.cls-18,.cls-19,.cls-20,.cls-21,.cls-22,.cls-23,.cls-24,.cls-25,.cls-26,.cls-27,.cls-28,.cls-3,.cls-4,.cls-6,.cls-9{fill:none;}.cls-4{stroke:#ca9e37;}.cls-10,.cls-11,.cls-12,.cls-13,.cls-14,.cls-15,.cls-16,.cls-17,.cls-18,.cls-19,.cls-20,.cls-21,.cls-22,.cls-23,.cls-24,.cls-25,.cls-26,.cls-27,.cls-28,.cls-4,.cls-6{stroke-width:3px;}.cls-5{fill:#c39d4d;}.cls-6{stroke:#5ea2c0;}.cls-7{fill:#6ea1bc;}.cls-8{fill:#2d0043;}.cls-22,.cls-9{stroke:#c39d4d;}.cls-10{stroke:#573369;}.cls-10,.cls-11,.cls-12,.cls-13,.cls-14,.cls-15,.cls-16,.cls-17,.cls-18,.cls-19,.cls-20,.cls-21,.cls-22,.cls-23,.cls-24,.cls-25,.cls-26,.cls-27,.cls-28{stroke-miterlimit:10;}.cls-11{stroke:#4b3b70;}.cls-12{stroke:#3f4376;}.cls-13{stroke:#334b7d;}.cls-14{stroke:#265383;}.cls-15{stroke:#1a5b89;}.cls-16{stroke:#0e6390;}.cls-17{stroke:#2c6d85;}.cls-18{stroke:#4a767a;}.cls-19{stroke:#69806f;}.cls-20{stroke:#878a63;}.cls-21{stroke:#a59358;}.cls-23{stroke:#ba8940;}.cls-24{stroke:#b27633;}.cls-25{stroke:#aa6327;}.cls-26{stroke:#a14f1a;}.cls-27{stroke:#993c0d;}.cls-28{stroke:#902800;}.cls-29{fill:url(#linear-gradient);}</style><linearGradient id="linear-gradient" x1="-520.32" y1="499.57" x2="-519.45" y2="499.57" gradientTransform="matrix(0, -133, -500, 0, 250035.2, -68672)" gradientUnits="userSpaceOnUse"><stop offset="0" stop-color="#363940" stop-opacity="0.09"/><stop offset="0.47" stop-color="#aeb0b2" stop-opacity="0.08"/><stop offset="1" stop-color="#fff" stop-opacity="0"/></linearGradient></defs><g id="Group_887" data-name="Group 887"><path id="Path_403" data-name="Path 403" class="cls-1" d="M0-.62H500v500H0Z"/></g><g id="Group_888" data-name="Group 888"><path id="Path_588" data-name="Path 588" class="cls-2" d="M32.93,19c1.82,0,2.27.62,2.27,1.92a3,3,0,0,1-.47,1.61c-.5.06-1,.09-1.5.1h-2V19C31.88,19,32.42,19,32.93,19Zm.83,9.69c2.64,0,4.09-1.11,4.09-2.89,0-1.54-.7-2.25-2.29-2.5a3,3,0,0,0,1.74-2.69c0-2.08-1.14-3.21-3.85-3.21H29V28.65h4.75Zm.05-1.54c-.86,0-1.71,0-2.55-.08v-3c.73,0,1.37,0,1.95,0,1.93,0,2.4.5,2.4,1.84a2.39,2.39,0,0,1-.26,1.2c-.54,0-1.07.06-1.54.06Zm12.33,1.52h2.18V19.86H46.14V24a6.8,6.8,0,0,1-.19,2,3.63,3.63,0,0,1-2.31.93c-.77,0-1.09-.45-1.09-1.31V19.86H40.38v6.36c0,1.86,1.13,2.61,2.25,2.61,1.41,0,2.44-.8,3.51-1.95Zm8.77-10.91H52.73v2.12H51v1.72h1.73v3.63c0,2.81,1.6,3.62,3.77,3.62,2.78,0,3.66-1.28,3.68-3.81h-2A8.85,8.85,0,0,1,58,27a6.9,6.9,0,0,1-1.11.07c-1.58,0-2-.84-2-2.25V21.25a22.7,22.7,0,0,0,5.2.43V19.86h-5.2Zm11.26,0H64v2.12H62.27v1.72H64v3.63c0,2.81,1.6,3.62,3.78,3.62,2.77,0,3.66-1.28,3.68-3.81h-2a8.85,8.85,0,0,1-.13,2,6.9,6.9,0,0,1-1.11.07c-1.58,0-2-.84-2-2.25V21.25a22.7,22.7,0,0,0,5.2.43V19.86h-5.2Zm7.62,6.66c0,3.42,1.69,4.47,4.54,4.47s4.32-1.8,4.32-4.69c0-3.46-1.67-4.54-4.49-4.53S73.79,21.4,73.79,24.4Zm4.34-3c1.93,0,2.32.9,2.32,3a7.91,7.91,0,0,1-.3,2.37,5.88,5.88,0,0,1-1.72.26c-2,0-2.44-1.18-2.44-2.87a12.05,12.05,0,0,1,.28-2.54A7.26,7.26,0,0,1,78.13,21.42Zm9.65,3.13A7.13,7.13,0,0,1,88,22.6a3.74,3.74,0,0,1,2.31-.94c.77,0,1.09.45,1.09,1.32v5.67h2.18V22.28c0-1.85-1.13-2.61-2.25-2.61-1.41,0-2.44.81-3.51,2V19.86H85.6v8.79h2.17Zm13.12,4.32c2.59,0,3.9-.9,3.9-2.57,0-1.41-.6-2.31-3.78-2.91-1.76-.3-2-.79-2-1.37a2.6,2.6,0,0,1,.06-.56,5.61,5.61,0,0,1,1.63-.21c1.32,0,1.67.28,1.67,1.28h2.18c.11-2-.9-2.89-3.71-2.89-2.58,0-4,.93-4,2.72,0,1.5.8,2.31,3.43,2.76,2,.32,2.29.75,2.29,1.44a2.63,2.63,0,0,1,0,.49,5.09,5.09,0,0,1-1.65.21c-1.43,0-1.93-.3-1.93-1.37H96.77C96.63,28,97.74,28.87,100.9,28.87ZM27.54,30.43h78.84v.9H27.54Z"/><g id="Group_768" data-name="Group 768"><path id="Path_595" data-name="Path 595" class="cls-2" d="M237,124.11h1.68v-8.58h-1.25v4.25c0,.87.08,2,.15,2.87h-.1a25.53,25.53,0,0,0-1.13-2.77l-2.19-4.35h-1.89v8.58h1.23v-4.2c0-1,0-2.26-.1-3.21h.12a31.55,31.55,0,0,0,1.23,3Zm7-5.69c1.29,0,1.7.5,1.73,1.76a15.56,15.56,0,0,0-3.59.4,7.49,7.49,0,0,1,.3-2,7.55,7.55,0,0,1,1.57-.17Zm.32,4.69c-1.67,0-2.09-.84-2.16-2h4.87a8.26,8.26,0,0,0,.08-1c0-1.77-.92-2.79-2.88-2.79-2.34,0-3.46,1.32-3.46,3.58,0,2.5,1.22,3.37,3.35,3.37s2.91-.6,2.91-1.93a.43.43,0,0,0,0-.16h-1.29a7.07,7.07,0,0,1-.05.76,3.69,3.69,0,0,1-1.36.17Zm9.85,1H256l-2.51-3.24,2.5-3.39h-1.67l-1.63,2.64L251,117.48h-1.8l2.48,3.22-2.5,3.41h1.7l1.6-2.67Zm6.34-8.22h-1.4v1.59h-1.43v1.14h1.43v2.89c0,2.15,1.14,2.75,2.74,2.75,2,0,2.66-1,2.68-2.8h-1.36a5.49,5.49,0,0,1-.13,1.56,5.62,5.62,0,0,1-.92.07c-1.33,0-1.61-.7-1.61-1.83v-2.88a21,21,0,0,0,4,.29v-1.19h-4Zm-29.38,10H265.5v.9H231.17Z"/><g id="Group_759" data-name="Group 759"><g id="Ellipse_8" data-name="Ellipse 8"><circle class="cls-3" cx="247.44" cy="88.36" r="17.88"/><circle class="cls-4" cx="247.44" cy="88.36" r="16.38"/></g><path id="Path_296" data-name="Path 296" class="cls-5" d="M253.08,90.12a33.52,33.52,0,0,0-7.09,6,1.21,1.21,0,0,1-1.7.13,1.19,1.19,0,0,1-.42-.91V82.86a1.19,1.19,0,0,1,1.21-1.2,1.21,1.21,0,0,1,.91.41,33.28,33.28,0,0,0,7.09,6,1.2,1.2,0,0,1,.37,1.65A1.09,1.09,0,0,1,253.08,90.12Z"/></g></g><g id="Group_767" data-name="Group 767"><path id="Path_596" data-name="Path 596" class="cls-2" d="M168.79,120.65a14.51,14.51,0,0,1-1.86-.11v-3.76c.5,0,1,0,1.41,0,1.86,0,2.37.5,2.37,1.9a3.71,3.71,0,0,1-.47,1.93A11.76,11.76,0,0,1,168.79,120.65Zm0,1.15a3.07,3.07,0,0,0,3.38-2.7,3.75,3.75,0,0,0,0-.67c0-1.86-1-2.9-3.29-2.9h-3.35v8.58h1.42v-2.53a9.53,9.53,0,0,0,1.84.22Zm9.5-4.46a3.44,3.44,0,0,0-2.73,1.48v-1.34h-1.37v6.63h1.4v-3a5.71,5.71,0,0,1,.15-1.54,3.1,3.1,0,0,1,2.13-1c.76,0,1,.39,1,1.13v1h1.4v-1.4a1.76,1.76,0,0,0-1.51-2,2.09,2.09,0,0,0-.5,0Zm7.32,1.08c1.29,0,1.7.5,1.73,1.76a15.5,15.5,0,0,0-3.59.4,7.11,7.11,0,0,1,.3-2A7.45,7.45,0,0,1,185.59,118.42Zm.32,4.69c-1.68,0-2.09-.84-2.16-2h4.87a8.26,8.26,0,0,0,.08-1c0-1.77-.92-2.79-2.88-2.79-2.34,0-3.46,1.31-3.46,3.58,0,2.5,1.22,3.37,3.35,3.37,2,0,2.91-.6,2.91-1.93a.43.43,0,0,0,0-.16h-1.29a7.07,7.07,0,0,1,0,.76,3.69,3.69,0,0,1-1.36.17Zm9.46,1,2.4-6.63h-1.51l-.77,2.51c-.3,1-.6,2-.86,2.92h-.84c-.25-1-.53-1.94-.86-2.94l-.82-2.49h-1.54l2.43,6.63Zm-31.23,1.79h34.32v.9H164.14Z"/><g id="Group_760" data-name="Group 760"><g id="Ellipse_61" data-name="Ellipse 61"><circle class="cls-3" cx="180.41" cy="88.36" r="17.88"/><circle class="cls-6" cx="180.41" cy="88.36" r="16.38"/></g><path id="Path_298" data-name="Path 298" class="cls-7" d="M174.78,90.12a33.77,33.77,0,0,1,7.09,6,1.2,1.2,0,0,0,2.11-.78V82.86a1.19,1.19,0,0,0-1.2-1.2,1.21,1.21,0,0,0-.91.41,33.52,33.52,0,0,1-7.09,6,1.2,1.2,0,0,0-.38,1.65A1.22,1.22,0,0,0,174.78,90.12Z"/></g></g><g id="Timer"><path id="Path_594" data-name="Path 594" class="cls-8" d="M31.25,154.87c2.46,0,3.59-.9,3.59-2.56,0-1.29-.43-2.16-3.3-2.85-1.51-.37-1.76-.71-1.76-1.34a2.83,2.83,0,0,1,0-.5,5.9,5.9,0,0,1,1.33-.16c1,0,1.3.28,1.3,1.22H34.6c.11-1.93-.82-2.79-3.3-2.79s-3.59,1-3.59,2.59.73,2.19,3.06,2.76c1.61.38,1.94.74,1.94,1.36a1.54,1.54,0,0,1-.05.48,4.52,4.52,0,0,1-1.32.18c-1.2,0-1.64-.26-1.64-1.23H27.55C27.45,154,28.45,154.87,31.25,154.87Zm4.85-8.78V148h2.84v6.68h2.15v-6.92A18.58,18.58,0,0,0,44,148v-1.9Zm12.76,7a6.16,6.16,0,0,0,1.54-.17l.43,1.73h2.32l-2.56-8.58H47.2l-2.53,8.58h2.21l.43-1.73A6.24,6.24,0,0,0,48.86,153.11Zm-.86-2.9c.21-.84.41-1.73.59-2.54h.58c.17.81.34,1.7.56,2.54l.33,1.36h-2.4Zm9.82.4a10.37,10.37,0,0,1-1.25-.05v-2.74c.33,0,.67,0,1,0,1.19,0,1.66.36,1.66,1.33a3.09,3.09,0,0,1-.36,1.43C58.4,150.59,58.11,150.61,57.82,150.61Zm.09,1.49H58l1.4,2.57H62l-2.13-3a3.11,3.11,0,0,0,1.56-2.86c0-1.67-1-2.7-3.29-2.7H54.42v8.58h2.14V152c.46,0,.92.06,1.35.06Zm4.79-6V148h2.84v6.68h2.15v-6.92a18.58,18.58,0,0,0,2.89.24v-1.9Zm13.44,0V148H79v6.68h2.14v-6.92A18.68,18.68,0,0,0,84,148v-1.9Zm11.73,8.58v-8.58H85.73v8.58ZM92.23,151c0-1,0-2.2,0-3.19h.17c.32,1,.66,2,1.07,3.25l1.09,2.79h2l1.11-2.74c.42-1.13.8-2.28,1.1-3.3H99c0,1-.1,2.16-.1,3.19v3.66H101v-8.58H97.77l-1.23,3.32a24.6,24.6,0,0,0-.68,2.37h-.14c-.23-.87-.48-1.79-.67-2.3l-1.29-3.39H90.3v8.58h1.93Zm11.21,3.66h6.47V153h-4.32v-1.79c1.3.1,2.62.16,4,.13v-1.47h-4v-2.16c1.44.08,2.87.11,4.32.11v-1.7h-6.47Zm12.16-4.06a10.62,10.62,0,0,1-1.26-.05v-2.74c.33,0,.67,0,1,0,1.19,0,1.66.36,1.66,1.33a3.08,3.08,0,0,1-.35,1.43C116.17,150.59,115.89,150.61,115.6,150.61Zm.08,1.49h.09l1.4,2.57h2.57l-2.12-3a3.11,3.11,0,0,0,1.56-2.86c0-1.67-1-2.7-3.29-2.7H112.2v8.58h2.14V152c.46,0,.92.06,1.35.06Z"/><g id="Group_608" data-name="Group 608"><path id="Path_277" data-name="Path 277" class="cls-8" d="M72.57,101s14.21,5.59,14.21,19.9v8.53H58.35v-8.53c0-14.31,14.22-19.9,14.22-19.9m0-3.4L71.41,98c-.66.26-16.22,6.56-16.22,22.84v11.69H89.94V120.88C89.94,104.6,74.38,98.3,73.72,98l-1.16-.46Z"/><path id="Path_278" data-name="Path 278" class="cls-8" d="M86.78,69v8.53c0,14.32-14.22,19.9-14.22,19.9S58.35,91.8,58.35,77.48V69H86.78m3.16-3.16H55.19V77.48c0,16.28,15.55,22.58,16.22,22.84l1.15.46,1.16-.46c.66-.26,16.22-6.56,16.22-22.84V65.79Z"/><g id="Group_602" data-name="Group 602"><g id="Group_595" data-name="Group 595"><path id="Path_279" data-name="Path 279" class="cls-8" d="M65.09,84.33v5.36a15.42,15.42,0,0,1-1.25-1.64V84.33Z"/></g><g id="Group_596" data-name="Group 596"><path id="Path_280" data-name="Path 280" class="cls-8" d="M67.79,84.33v8c-.42-.33-.84-.69-1.26-1.09V84.33Z"/></g><g id="Group_597" data-name="Group 597"><path id="Path_281" data-name="Path 281" class="cls-8" d="M70.49,84.33v9.8q-.58-.33-1.26-.78v-9Z"/></g><g id="Group_598" data-name="Group 598"><path id="Path_282" data-name="Path 282" class="cls-8" d="M73.18,84.33V94.91c-.39.18-.62.27-.62.27l-.63-.27V84.33Z"/></g><g id="Group_599" data-name="Group 599"><path id="Path_283" data-name="Path 283" class="cls-8" d="M75.88,84.33v9c-.45.3-.86.57-1.25.78v-9.8Z"/></g><g id="Group_600" data-name="Group 600"><path id="Path_284" data-name="Path 284" class="cls-8" d="M78.58,84.33v6.88c-.41.39-.83.75-1.24,1.08v-8Z"/></g><g id="Group_601" data-name="Group 601"><path id="Path_285" data-name="Path 285" class="cls-8" d="M81.29,84.33V88A14.39,14.39,0,0,1,80,89.69V84.33Z"/></g></g><g id="Group_603" data-name="Group 603"><rect id="Rectangle_518" data-name="Rectangle 518" class="cls-8" x="51.9" y="65.38" width="41.31" height="3.16"/></g><g id="Group_604" data-name="Group 604"><rect id="Rectangle_519" data-name="Rectangle 519" class="cls-8" x="51.9" y="129.49" width="41.31" height="3.16"/></g><g id="Group_607" data-name="Group 607"><g id="Group_605" data-name="Group 605"><path id="Path_286" data-name="Path 286" class="cls-8" d="M62.39,119.78V127a1.35,1.35,0,0,1-1.25-1.35V121.3a1.36,1.36,0,0,1,.63-1.14Z"/></g><path id="Path_287" data-name="Path 287" class="cls-8" d="M63.84,118.88l1.25-.78V127H63.84Z"/><path id="Path_288" data-name="Path 288" class="cls-8" d="M66.53,117.2l1.26-.77V127H66.53Z"/><path id="Path_289" data-name="Path 289" class="cls-8" d="M69.23,115.53l1.26-.78V127H69.23Z"/><path id="Path_290" data-name="Path 290" class="cls-8" d="M73.18,113.85V127H71.93V113.86A1.35,1.35,0,0,1,73.18,113.85Z"/><path id="Path_291" data-name="Path 291" class="cls-8" d="M74.63,114.75l1.25.78V127H74.63Z"/><path id="Path_292" data-name="Path 292" class="cls-8" d="M77.33,116.43l1.25.77V127H77.33Z"/><path id="Path_293" data-name="Path 293" class="cls-8" d="M80,118.1l1.25.78V127H80Z"/><g id="Group_606" data-name="Group 606"><path id="Path_294" data-name="Path 294" class="cls-8" d="M84,121.3v4.36A1.36,1.36,0,0,1,82.73,127v-7.23l.61.38A1.35,1.35,0,0,1,84,121.3Z"/></g></g></g></g><g id="Group_763" data-name="Group 763"><g id="Rectangle_545" data-name="Rectangle 545"><rect class="cls-9" x="315.35" y="114.7" width="127.71" height="32.97" rx="3.5"/></g><g id="Group_656" data-name="Group 656"><path id="Path_598" data-name="Path 598" class="cls-5" d="M358.1,134.8a7.26,7.26,0,0,0,1.74-.2l.48,2h2.61l-2.88-9.65h-3.81l-2.85,9.65h2.49l.48-2A7.94,7.94,0,0,0,358.1,134.8Zm-1-3.27c.24-.95.46-1.95.66-2.86h.66c.19.91.38,1.91.62,2.86l.37,1.53h-2.7Zm11,3.11c-.5,0-1,0-1.44,0v-5.71c.37,0,.73,0,1.05,0,1.61,0,2,.74,2,2.8a8.07,8.07,0,0,1-.48,2.88A8.82,8.82,0,0,1,368.13,134.64Zm-.08,2c2.6,0,4.11-1.77,4.11-5.18,0-2.95-1.11-4.52-3.74-4.52h-4.14v9.65h0C365,136.58,367,136.6,368.05,136.6Zm10-2c-.5,0-1,0-1.44,0v-5.71c.38,0,.73,0,1.05,0,1.61,0,2,.74,2,2.8a8.07,8.07,0,0,1-.48,2.88A8.82,8.82,0,0,1,378,134.64Zm-.08,2c2.6,0,4.12-1.77,4.12-5.18,0-2.95-1.11-4.52-3.75-4.52h-4.14v9.65h0c.69,0,2.69,0,3.75,0Zm16,0h2.7V126.9h-1.91v3c0,1.13.15,3,.31,4.38H395a36.51,36.51,0,0,0-1.41-4L392,126.9h-2.83v9.65h1.91v-2.9c0-1.17-.14-3.39-.27-4.81h.11c.4,1.19,1,2.9,1.4,3.88Zm8.7.23c3,0,4.28-2,4.28-5.41s-1.53-4.7-4-4.7c-3,0-4.26,2-4.26,5.41s1.53,4.7,4,4.7Zm.24-2c-1.45,0-1.93-1.05-1.93-3a9.59,9.59,0,0,1,.39-2.91,4.74,4.74,0,0,1,1.3-.18c1.38,0,1.93,1.07,1.93,3a9.22,9.22,0,0,1-.4,2.91,4.3,4.3,0,0,1-1.28.18Zm5.36-7.85V129h3.2v7.51h2.41v-7.79a20.87,20.87,0,0,0,3.25.28V126.9ZM419,136.55h7.27v-1.91h-4.86v-2a43.71,43.71,0,0,0,4.44.15v-1.66h-4.44v-2.43c1.63.1,3.24.13,4.86.13V126.9H419Z"/><g id="Group_655" data-name="Group 655"><path id="Rectangle_543" data-name="Rectangle 543" class="cls-5" d="M344.88,131.86h0a1.22,1.22,0,0,1-1.22,1.22H331.27a1.22,1.22,0,0,1-1.22-1.22h0a1.22,1.22,0,0,1,1.22-1.22h12.39A1.22,1.22,0,0,1,344.88,131.86Z"/><path id="Rectangle_544" data-name="Rectangle 544" class="cls-5" d="M337.46,139.28h0a1.22,1.22,0,0,1-1.22-1.22V125.67a1.22,1.22,0,0,1,1.22-1.22h0a1.22,1.22,0,0,1,1.23,1.22v12.39A1.23,1.23,0,0,1,337.46,139.28Z"/></g></g></g><g id="menu_button" data-name="menu button"><g id="Group_614" data-name="Group 614"><rect id="Rectangle_524" data-name="Rectangle 524" class="cls-8" x="426.58" y="70.49" width="3.18" height="15.94"/></g><g id="Group_615" data-name="Group 615"><rect id="Rectangle_525" data-name="Rectangle 525" class="cls-8" x="433.47" y="75.33" width="3.2" height="15.94"/></g><g id="Group_616" data-name="Group 616"><rect id="Rectangle_526" data-name="Rectangle 526" class="cls-8" x="440.36" y="70.49" width="3.2" height="15.94"/></g></g><g id="Group_770" data-name="Group 770"><g id="Group_697" data-name="Group 697"><path id="Path_597" data-name="Path 597" class="cls-8" d="M345.93,78.36c1,0,1.28.41,1.28,1.3a2,2,0,0,1-.25,1,6.24,6.24,0,0,1-1,.07h-1.26V78.38Zm.63,7.15c1.93,0,3-.85,3-2.2a1.71,1.71,0,0,0-1.49-1.91h-.21a2.24,2.24,0,0,0,1.29-2c0-1.59-.87-2.45-2.93-2.45h-3.63v8.58c1.5,0,3,0,4,0Zm-.08-1.38c-.59,0-1.17,0-1.75,0v-2l1.29,0c1.14,0,1.44.36,1.44,1.33a2,2,0,0,1-.11.73C347,84.13,346.74,84.13,346.48,84.13Zm8.24-.2a6.22,6.22,0,0,0,1.54-.17l.43,1.73H359l-2.55-8.58h-3.39l-2.53,8.58h2.21l.43-1.73A6.24,6.24,0,0,0,354.72,83.93Zm-.86-2.9c.21-.84.41-1.73.58-2.54H355c.17.81.34,1.7.56,2.54l.33,1.36h-2.4Zm11.35,1.39a3.64,3.64,0,0,1-.17,1.27,3.07,3.07,0,0,1-1.2.21c-1.36,0-1.75-1-1.75-2.51a10.27,10.27,0,0,1,.36-2.7,5.86,5.86,0,0,1,1.25-.16c1.15,0,1.48.5,1.48,1.9h2.08c0-2.6-1.18-3.72-3.39-3.72-2.76,0-3.92,1.7-3.92,4.81s1.5,4.17,3.93,4.17c2.15,0,3.44-1,3.44-3.27Zm8.8,3.07h2.65l-3-4.13a14.28,14.28,0,0,0,2.85-4.45h-2.4a13.83,13.83,0,0,1-1.84,3.76h-.83V76.91h-2.14v8.58h2.14V82.35h.76Z"/><path id="Path_298-2" data-name="Path 298-2" class="cls-8" d="M315.41,81.89a33.23,33.23,0,0,1,7.09,6,1.2,1.2,0,0,0,1.7.12,1.19,1.19,0,0,0,.42-.91V74.62a1.21,1.21,0,0,0-1.21-1.2,1.22,1.22,0,0,0-.91.42,33,33,0,0,1-7.09,6,1.21,1.21,0,0,0-.37,1.66A1.09,1.09,0,0,0,315.41,81.89Z"/></g></g><g id="Group_771" data-name="Group 771"><circle id="Ellipse_4" data-name="Ellipse 4" class="cls-2" cx="188.45" cy="148.17" r="6.7"/><circle id="Ellipse_5" data-name="Ellipse 5" class="cls-7" cx="207.22" cy="148.17" r="4.02"/><circle id="Ellipse_6" data-name="Ellipse 6" class="cls-7" cx="223.31" cy="148.17" r="4.02"/><circle id="Ellipse_7" data-name="Ellipse 7" class="cls-7" cx="239.4" cy="148.17" r="4.02"/></g></g><g id="Group_889" data-name="Group 889"><g id="Group_524" data-name="Group 524"><path id="Path_73" data-name="Path 73" class="cls-10" d="M500.12,401.66s-95.15-.07-104.94,0c-20.25.14-11.52-45.19-32.95-45.19s-9.05,45.19-31.5,45.19h-108c-22.45,0-11.77,45.19-33.2,45.19s-9.5-45.33-29.74-45.19c-9.8.07-55.7,0-55.7,0H-11.09"/><path id="Path_74" data-name="Path 74" class="cls-11" d="M500.12,394.13s-82.6-.07-92.39,0c-20.24.14-11.51-45.19-33-45.19s-9,45.19-31.5,45.19H235.19c-22.45,0-11.48,45.19-32.92,45.19S192,394,172,394.13c-9.8.06-68,0-68,0H-8.62"/><path id="Path_75" data-name="Path 75" class="cls-12" d="M500.12,386.6s-70-.07-79.83,0c-20.25.14-11.52-45.19-33-45.19s-9,45.19-31.5,45.19H247.7c-22.45,0-11.2,45.19-32.63,45.19s-11-45.28-30.81-45.19c-9.79,0-80.22,0-80.22,0H-8.62"/><path id="Path_76" data-name="Path 76" class="cls-13" d="M500.12,379.07s-57.48-.07-67.28,0c-20.24.14-11.51-45.19-32.95-45.19s-9,45.19-31.5,45.19H260.22c-22.45,0-10.92,45.19-32.35,45.19s-11.7-45.26-31.35-45.19c-9.79,0-92.48,0-92.48,0H-6.15"/><path id="Path_77" data-name="Path 77" class="cls-14" d="M500.12,371.54s-44.92-.07-54.72,0c-20.24.14-11.51-45.19-32.95-45.19s-9,45.19-31.5,45.19H272.73c-22.45,0-10.63,45.19-32.06,45.19s-12.43-45.24-31.88-45.19c-9.8,0-104.75,0-104.75,0H-9.6"/><path id="Path_78" data-name="Path 78" class="cls-15" d="M500.12,364s-32.37-.06-42.16,0c-20.25.14-11.52-45.18-32.95-45.18S416,364,393.51,364H285.24c-22.45,0-10.34,45.19-31.78,45.19S240.31,364,221.05,364c-9.8,0-117,0-117,0H-3.67"/><path id="Path_79" data-name="Path 79" class="cls-16" d="M500.12,356.47s-19.81-.07-29.61,0c-20.24.14-11.51-45.19-32.95-45.19s-9,45.19-31.5,45.19H297.76c-22.46,0-10.07,45.19-31.5,45.19s-13.89-45.19-32.95-45.19H-4.17"/><path id="Path_80" data-name="Path 80" class="cls-17" d="M500.12,348.94s-36.59-.07-46.38,0c-20.25.14-11.52-45.19-32.95-45.19s-9.05,45.19-31.5,45.19H278.5c-22.45,0-10.06,45.19-31.5,45.19s-13.69-45.21-32.95-45.19H-5.65"/><path id="Path_81" data-name="Path 81" class="cls-18" d="M500.12,341.41s-53.36-.07-63.16,0c-20.24.14-11.51-45.19-32.95-45.19s-9,45.19-31.5,45.19H259.24c-22.45,0-10.06,45.19-31.5,45.19s-13.5-45.24-33-45.19H-7.14"/><path id="Path_82" data-name="Path 82" class="cls-19" d="M500.12,333.88s-70.14-.07-79.93,0c-20.25.14-11.52-45.19-32.95-45.19s-9.05,45.19-31.5,45.19H240c-22.45,0-10.06,45.19-31.5,45.19s-13.3-45.23-33-45.19H-9.12"/><path id="Path_83" data-name="Path 83" class="cls-20" d="M500.12,326.35s-86.91-.07-96.71,0c-20.24.14-11.51-45.19-33-45.19s-9,45.19-31.5,45.19H220.73c-22.45,0-10.06,45.19-31.5,45.19s-13.1-45.24-32.95-45.19H-13.57"/><path id="Path_84" data-name="Path 84" class="cls-21" d="M500.12,318.81s-103.69-.06-113.48,0c-20.25.14-11.52-45.18-32.95-45.18s-9.05,45.18-31.5,45.18H201.48C179,318.81,191.41,364,170,364s-12.9-45.24-32.95-45.19H-10.11"/><path id="Path_85" data-name="Path 85" class="cls-22" d="M500.12,311.28s-120.47-.07-130.26,0c-20.24.14-11.51-45.19-32.95-45.19s-9.05,45.19-31.5,45.19H182.22c-22.45,0-10.06,45.19-31.5,45.19s-12.7-45.33-32.95-45.19H-12.08"/><path id="Path_86" data-name="Path 86" class="cls-23" d="M500.12,303.75s-107.07-.07-116.87,0c-20.24.14-11.51-45.19-32.95-45.19s-9,45.19-31.5,45.19H193.27c-22.45,0-10.06,45.19-31.5,45.19s-12.7-45.33-33-45.19H-14.56"/><path id="Path_87" data-name="Path 87" class="cls-24" d="M500.12,296.22s-93.68-.07-103.48,0c-20.24.14-11.51-45.19-32.95-45.19s-9,45.19-31.5,45.19H204.32c-22.45,0-10.06,45.19-31.5,45.19s-12.71-45.33-32.95-45.19c-3.27,0-35.84,0-35.84,0H-14.06"/><path id="Path_88" data-name="Path 88" class="cls-25" d="M500.12,288.69s-80.29-.07-90.08,0c-20.24.14-11.51-45.19-33-45.19s-9,45.19-31.5,45.19H215.37c-22.45,0-10.06,45.19-31.5,45.19s-12.71-45.33-33-45.19c-4.9,0-46.89,0-46.89,0H-18"/><path id="Path_89" data-name="Path 89" class="cls-26" d="M500.12,281.15s-66.89-.06-76.69,0c-20.24.14-11.51-45.18-32.95-45.18s-9,45.18-31.5,45.18H226.42c-22.45,0-10.06,45.19-31.5,45.19S182.21,281,162,281.15c-6.53.05-57.94,0-57.94,0H-19"/><path id="Path_90" data-name="Path 90" class="cls-27" d="M500.12,273.62s-53.5-.06-63.29,0c-20.25.14-11.52-45.19-32.95-45.19s-9.05,45.19-31.5,45.19H237.47c-22.45,0-10.06,45.19-31.5,45.19S193.26,273.48,173,273.62c-8.16.06-69,0-69,0H-18.52"/><path id="Path_91" data-name="Path 91" class="cls-28" d="M500.12,266.09s-40.11-.06-49.9,0c-20.24.14-11.51-45.19-33-45.19s-9,45.19-31.5,45.19H248.52c-22.45,0-10.06,45.19-31.5,45.19s-12.71-45.33-33-45.19c-9.79.07-80,0-80,0H-20"/></g></g><path id="Path_665" data-name="Path 665" class="cls-2" d="M33.69,231.94a18.34,18.34,0,0,1-2.22-.11v-4.72c.6,0,1.17,0,1.74,0,2.18,0,2.86.65,2.86,2.39a5.21,5.21,0,0,1-.55,2.39Q34.6,231.94,33.69,231.94Zm.05,1.78c2.9,0,4.55-1.7,4.55-4.6,0-2.47-1.36-3.92-4.49-3.92H29.2v11.46h2.28v-3.19A12.22,12.22,0,0,0,33.74,233.72Zm14.59,3.13a7.74,7.74,0,0,0,1.07-.1V235a3,3,0,0,1-.52,0c-.51,0-.61-.26-.61-.74v-4c0-2-1.26-2.78-3.61-2.78-2.65,0-4,1.05-3.83,3.07h2.25a8.84,8.84,0,0,1,0-1.26,6.41,6.41,0,0,1,1.31-.14c1.22,0,1.64.56,1.64,1.55v1.11H43.5c-2.4,0-3.15,1.09-3.15,2.54a2.23,2.23,0,0,0,1.95,2.48,2.35,2.35,0,0,0,.53,0,4.28,4.28,0,0,0,3.32-1.65,1.89,1.89,0,0,0,2.12,1.65Zm-4.54-1.78c-1,0-1.25-.3-1.25-1.09a5.12,5.12,0,0,1,.08-.87,21.25,21.25,0,0,0,3.45-.58v0a6.9,6.9,0,0,1-.23,2A4.35,4.35,0,0,1,43.79,235.07Zm11.58-9.5H53.16v2.16H51.4v1.75h1.76v3.69c0,2.86,1.62,3.68,3.83,3.68,2.83,0,3.72-1.3,3.74-3.87H58.65a8.58,8.58,0,0,1-.13,2,7.08,7.08,0,0,1-1.13.08c-1.6,0-2-.86-2-2.29v-3.65a24,24,0,0,0,5.29.44v-1.86H55.37Zm11.45,0H64.61v2.16H62.85v1.75h1.76v3.69c0,2.86,1.62,3.68,3.83,3.68,2.83,0,3.73-1.3,3.74-3.87H70.1a8.58,8.58,0,0,1-.13,2,7.08,7.08,0,0,1-1.13.08c-1.6,0-2-.86-2-2.29v-3.65a24,24,0,0,0,5.29.44v-1.86H66.82Zm12.25,3.57c1.57,0,2.12.63,2.14,2.23a18.88,18.88,0,0,0-4.43.51,9.22,9.22,0,0,1,.39-2.55A9.28,9.28,0,0,1,79.07,229.14Zm.37,6c-2,0-2.54-1-2.64-2.52h6.43a9.36,9.36,0,0,0,.1-1.3c0-2.42-1.24-3.82-4-3.82-3.18,0-4.75,1.8-4.75,4.87,0,3.36,1.66,4.52,4.56,4.52s4-.8,4-2.65V234h-2c0,.32,0,.63-.07.94a5.47,5.47,0,0,1-1.7.21Zm12.92-7.6c-1.55,0-2.52.74-3.69,2.16v-2H86.54v8.93h2.21v-3.58a9.59,9.59,0,0,1,.21-2.14,3.84,3.84,0,0,1,2.63-1.34c.9,0,1.24.46,1.24,1.4v1.31H95v-1.85c0-2.1-1-2.92-2.68-2.92Zm7.88,5a7.82,7.82,0,0,1,.19-2,3.78,3.78,0,0,1,2.35-.95c.78,0,1.11.45,1.11,1.33v5.77h2.21v-6.47c0-1.89-1.14-2.66-2.29-2.66-1.43,0-2.48.82-3.57,2v-1.8H98v8.94h2.21Zm13.34,4.38c2.63,0,4-.91,4-2.61,0-1.43-.61-2.35-3.84-3-1.79-.3-2-.8-2-1.39a1.81,1.81,0,0,1,.06-.57,5.19,5.19,0,0,1,1.66-.21c1.33,0,1.7.28,1.7,1.3h2.21c.12-2.05-.91-2.94-3.78-2.94-2.61,0-4,.95-4,2.76,0,1.53.82,2.35,3.49,2.81,2,.32,2.33.76,2.33,1.47a4.21,4.21,0,0,1,0,.5,5,5,0,0,1-1.68.21c-1.45,0-2-.31-2-1.39h-2.25C109.24,236,110.37,236.88,113.58,236.88Zm-86,1.59h91.61v.91H27.54Z"/><rect id="Rectangle_641" data-name="Rectangle 641" class="cls-29" y="366.38" width="500" height="133"/></svg>